<?xml version="1.0" encoding="iso-8859-1"?>
<!-- Uploaded to: SVG Repo, www.svgrepo.com, Generator: SVG Repo Mixer Tools -->
<svg fill="#000000" height="800px" width="800px" version="1.1" id="Layer_1" xmlns="http://www.w3.org/2000/svg" xmlns:xlink="http://www.w3.org/1999/xlink" 
	 viewBox="0 0 512 512" xml:space="preserve">
<g>
	<g>
		<path d="M499.206,76.028C499.206,34.106,465.099,0,423.178,0c-34.651,0-63.942,23.312-73.066,55.069
			c-30.742-13.859-64.316-21.115-98.295-21.115c-63.846,0-123.869,24.862-169.014,70.008
			c-45.145,45.146-70.008,105.168-70.008,169.014c0,63.846,24.862,123.869,70.008,169.015C127.949,487.138,187.972,512,251.817,512
			s123.869-24.862,169.014-70.008c45.145-45.146,70.008-105.169,70.008-169.015c0-37.917-9.034-75.33-26.197-108.863
			C481.704,142.284,499.206,111.302,499.206,76.028z M183.72,75.796c-8.177,11.209-15.762,24.546-22.599,39.91
			c-4.217,9.477-8.069,19.593-11.528,30.155H86.536C111.175,113.899,144.856,89.255,183.72,75.796z M67.024,176.279h73.992
			c-6.316,26.391-10.258,54.338-11.347,81.49h-85.9C45.885,228.536,54.056,200.96,67.024,176.279z M67.024,369.676
			c-12.968-24.683-21.139-52.259-23.255-81.491h85.9c1.089,27.151,5.031,55.099,11.347,81.491H67.024z M86.536,400.092h63.057
			c3.459,10.563,7.311,20.678,11.528,30.155c6.837,15.365,14.422,28.702,22.599,39.91
			C144.856,456.699,111.175,432.055,86.536,400.092z M236.608,477.968c-17.023-7.971-33.819-28.898-47.696-60.086
			c-2.532-5.689-4.915-11.64-7.155-17.789h54.851V477.968z M236.608,369.676h-64.271c-6.787-26.081-11.05-54.171-12.223-81.491
			h76.494V369.676z M236.608,257.768h-76.494c1.173-27.32,5.436-55.41,12.223-81.49h64.271V257.768z M236.608,145.861h-54.851
			c2.239-6.149,4.623-12.1,7.155-17.789c13.877-31.189,30.673-52.116,47.696-60.087V145.861z M423.178,30.417
			c25.15,0,45.611,20.461,45.611,45.611c0,38.911-29.849,73.359-45.61,88.834c-14.031-13.779-39.201-42.573-44.575-76.166
			c-0.014-0.092-0.029-0.184-0.044-0.276c-0.156-0.997-0.291-1.999-0.412-3.004c-0.028-0.243-0.057-0.486-0.084-0.729
			c-0.097-0.881-0.178-1.765-0.247-2.652c-0.027-0.353-0.052-0.707-0.074-1.061c-0.052-0.805-0.09-1.611-0.117-2.42
			c-0.027-0.841-0.06-1.681-0.06-2.526C377.567,50.878,398.028,30.417,423.178,30.417z M391.937,176.279
			c5.956,6.603,11.35,11.822,15.289,15.416c0.005,0.005,0.011,0.01,0.017,0.015c0.272,0.248,0.535,0.487,0.793,0.719
			c0.04,0.035,0.079,0.072,0.119,0.107c0.231,0.209,0.455,0.409,0.675,0.604c0.059,0.053,0.118,0.105,0.175,0.157
			c0.203,0.18,0.398,0.354,0.59,0.522c0.065,0.057,0.129,0.114,0.193,0.169c0.179,0.157,0.353,0.309,0.521,0.456
			c0.07,0.061,0.139,0.121,0.208,0.18c0.153,0.133,0.301,0.261,0.444,0.384c0.078,0.067,0.153,0.131,0.228,0.196
			c0.125,0.106,0.246,0.211,0.363,0.31c0.087,0.075,0.169,0.144,0.252,0.214c0.093,0.079,0.187,0.158,0.274,0.232
			c0.1,0.085,0.193,0.161,0.285,0.239c0.059,0.05,0.121,0.1,0.176,0.147c0.114,0.094,0.215,0.178,0.313,0.26
			c0.026,0.021,0.055,0.046,0.08,0.066c0.373,0.307,0.632,0.516,0.755,0.615l9.49,7.578l8.295-6.624l1.194-0.953
			c0.619-0.495,4.421-3.572,9.912-8.817c9.677,21.861,15.528,45.34,17.277,69.296h-84.35v-0.002
			c-1.12-27.1-5.172-55.049-11.661-81.49H391.937z M347.793,87.721c0,0.013,0.002,0.024,0.003,0.036
			c0.095,0.88,0.203,1.756,0.318,2.63c0.013,0.098,0.024,0.197,0.038,0.294c0.115,0.848,0.239,1.691,0.372,2.532
			c0.019,0.121,0.038,0.241,0.057,0.362c0.134,0.829,0.277,1.655,0.427,2.477c0.023,0.127,0.046,0.253,0.07,0.38
			c0.153,0.82,0.315,1.637,0.485,2.453c0.025,0.123,0.051,0.245,0.077,0.368c0.173,0.821,0.356,1.638,0.545,2.453
			c0.025,0.107,0.051,0.215,0.076,0.322c0.197,0.831,0.401,1.66,0.613,2.484c0.02,0.078,0.041,0.156,0.062,0.235
			c0.222,0.853,0.451,1.701,0.689,2.547c0.01,0.036,0.021,0.073,0.031,0.108c3.987,14.063,10.252,27.02,17.308,38.457h-13.903
			c-3.548-10.587-7.497-20.737-11.82-30.259c-6.917-15.234-14.554-28.474-22.759-39.617
			C329.844,79.24,338.977,83.149,347.793,87.721z M267.025,67.938c17.218,7.945,34.305,28.931,48.52,60.239
			c2.571,5.663,4.995,11.578,7.271,17.685h-55.791V67.938z M267.025,176.279h65.452c6.986,26.134,11.374,54.23,12.584,81.49h-78.035
			V176.279z M267.025,288.184h78.035c-1.211,27.26-5.598,55.356-12.584,81.491h-65.452V288.184z M267.025,478.017v-77.924h55.791
			c-2.276,6.107-4.699,12.022-7.271,17.685C301.331,449.086,284.243,470.072,267.025,478.017z M320.495,469.953
			c8.201-11.141,15.834-24.374,22.747-39.601c4.323-9.522,8.272-19.672,11.82-30.259h62.036
			C392.581,431.894,359.113,456.449,320.495,469.953z M436.609,369.676h-72.763c6.489-26.442,10.541-54.391,11.661-81.491h84.357
			C457.748,317.417,449.577,344.994,436.609,369.676z"/>
	</g>
</g>
<g>
	<g>
		<path d="M423.178,38.348c-20.777,0-37.68,16.903-37.68,37.68c0,20.777,16.903,37.68,37.68,37.68
			c20.777,0,37.68-16.903,37.68-37.68C460.858,55.251,443.955,38.348,423.178,38.348z M423.178,83.29
			c-4.005,0-7.263-3.258-7.263-7.263c0-4.004,3.258-7.263,7.263-7.263c4.004,0,7.263,3.258,7.263,7.263S427.183,83.29,423.178,83.29
			z"/>
	</g>
</g>
</svg>